<svg xmlns="http://www.w3.org/2000/svg" version="1.1" xmlns:xlink="http://www.w3.org/1999/xlink" xmlns:svgjs="http://svgjs.dev/svgjs" width="2000" height="1247" viewBox="0 0 2000 1247"><g transform="matrix(1,0,0,1,-1.2121212121212466,0.5048582995952984)"><svg viewBox="0 0 396 247" data-background-color="#ffffff" preserveAspectRatio="xMidYMid meet" height="1247" width="2000" xmlns="http://www.w3.org/2000/svg" xmlns:xlink="http://www.w3.org/1999/xlink"><g id="tight-bounds" transform="matrix(1,0,0,1,0.2400000000000091,-0.09999999999999432)"><svg viewBox="0 0 395.52 247.2" height="247.2" width="395.52"><g><svg></svg></g><g><svg viewBox="0 0 395.52 247.2" height="247.2" width="395.52"><g transform="matrix(1,0,0,1,75.54432,100.32381482384729)"><svg viewBox="0 0 244.43135999999998 46.552370352305424" height="46.552370352305424" width="244.43135999999998"><g><svg viewBox="0 0 244.43135999999998 46.552370352305424" height="46.552370352305424" width="244.43135999999998"><g><svg viewBox="0 0 314.5774225458594 59.91180787452363" height="46.552370352305424" width="244.43135999999998"><g transform="matrix(1,0,0,1,0,8.280141319850951)"><svg viewBox="0 0 244.43135999999998 43.35152523482173" height="43.35152523482173" width="244.43135999999998"><g id="textblocktransform"><svg viewBox="0 0 244.43135999999998 43.35152523482173" height="43.35152523482173" width="244.43135999999998" id="textblock"><g><svg viewBox="0 0 244.43135999999998 43.35152523482173" height="43.35152523482173" width="244.43135999999998"><g transform="matrix(1,0,0,1,0,0)"><svg width="244.43135999999998" viewBox="3.5 -40.45000076293945 290.49633056640624 51.529998779296875" height="43.35152523482173" data-palette-color="#fdda00"><g transform="matrix(1,0,0,1,0,0)"><g><svg width="17.410883789062503" viewBox="1.7799999713897705 -36.36000061035156 74.20999908447266 36.36000061035156" height="8.530500000000002" data-palette-color="#fdda00" id="scriptelement" x="276.5854494001082" y="-40.45000076293945"><path d="M12.91-30.02L1.78-30.02 1.78-36.36 31.64-36.36 31.64-30.02 20.51-30.02 20.51 0 12.91 0 12.91-30.02ZM36.57 0L36.57-36.36 46.06-36.36 56.07-11.93 56.5-11.93 66.51-36.36 75.99-36.36 75.99 0 68.53 0 68.53-23.67 68.23-23.67 58.82-0.18 53.74-0.18 44.33-23.76 44.03-23.76 44.03 0 36.57 0Z" opacity="1" transform="matrix(1,0,0,1,0,0)" fill="#fdda00" class="undefined-123" data-fill-palette-color="primary" id="p-123"></path></svg></g></g><path d="M11.4-37.93L11.4-23.83Q12.65-25.48 14.41-26.45 16.18-27.43 18.2-27.43L18.2-27.43Q21.63-27.43 23.79-25.7 25.95-23.98 26.98-20.83 28-17.68 28-13.35L28-13.35Q28-9.25 26.79-6.04 25.58-2.83 23.2-0.99 20.83 0.85 17.38 0.85L17.38 0.85Q13.2 0.85 10.8-2.4L10.8-2.4 10.5 0 3.5 0 3.5-37.1 11.4-37.93ZM15.3-4.9L15.3-4.9Q17.4-4.9 18.63-6.84 19.85-8.78 19.85-13.25L19.85-13.25Q19.85-16.55 19.34-18.36 18.82-20.18 17.89-20.89 16.95-21.6 15.7-21.6L15.7-21.6Q14.38-21.6 13.33-20.78 12.28-19.95 11.4-18.53L11.4-18.53 11.4-7.33Q12.15-6.15 13.08-5.53 14-4.9 15.3-4.9ZM45-27.43L45-27.43Q49.1-27.43 51.97-25.68 54.85-23.93 56.37-20.76 57.9-17.6 57.9-13.35L57.9-13.35Q57.9-8.93 56.36-5.74 54.82-2.55 51.95-0.85 49.07 0.85 45 0.85L45 0.85Q40.95 0.85 38.06-0.83 35.17-2.5 33.63-5.68 32.1-8.85 32.1-13.3L32.1-13.3Q32.1-17.53 33.63-20.7 35.17-23.88 38.06-25.65 40.95-27.43 45-27.43ZM45-21.6L45-21.6Q42.57-21.6 41.41-19.61 40.25-17.63 40.25-13.3L40.25-13.3Q40.25-8.9 41.41-6.93 42.57-4.95 45-4.95L45-4.95Q47.42-4.95 48.59-6.93 49.75-8.9 49.75-13.35L49.75-13.35Q49.75-17.65 48.59-19.63 47.42-21.6 45-21.6ZM78.59-24.98L78.59-37.93 86.5-37.1 86.5 0 79.5 0 79.09-2.93Q78-1.38 76.17-0.26 74.34 0.85 71.75 0.85L71.75 0.85Q68.45 0.85 66.28-0.93 64.12-2.7 63.06-5.89 62-9.08 62-13.35L62-13.35Q62-17.45 63.27-20.63 64.55-23.8 66.92-25.61 69.3-27.43 72.57-27.43L72.57-27.43Q74.34-27.43 75.87-26.8 77.4-26.18 78.59-24.98L78.59-24.98ZM74.7-21.65L74.7-21.65Q72.65-21.65 71.4-19.71 70.15-17.78 70.15-13.3L70.15-13.3Q70.15-10.03 70.67-8.21 71.2-6.4 72.12-5.68 73.05-4.95 74.25-4.95L74.25-4.95Q75.57-4.95 76.66-5.78 77.75-6.6 78.59-8.03L78.59-8.03 78.59-19.48Q77.77-20.5 76.84-21.08 75.92-21.65 74.7-21.65ZM94.54-26.55L109.72-26.55 109.72-5.4 116.47-5.4 116.47 0 94.29 0 94.29-5.4 101.82-5.4 101.82-21.15 94.54-21.15 94.54-26.55ZM104.94-40.45L104.94-40.45Q106.99-40.45 108.29-39.18 109.59-37.9 109.59-36L109.59-36Q109.59-34.1 108.29-32.81 106.99-31.53 104.94-31.53L104.94-31.53Q102.87-31.53 101.56-32.81 100.24-34.1 100.24-36L100.24-36Q100.24-37.9 101.56-39.18 102.87-40.45 104.94-40.45ZM145.84-18.05L145.84-7.65Q145.84-6.15 146.25-5.48 146.67-4.8 147.59-4.45L147.59-4.45 145.97 0.75Q143.62 0.53 142-0.29 140.39-1.1 139.47-2.75L139.47-2.75Q137.94-0.93 135.56-0.04 133.19 0.85 130.72 0.85L130.72 0.85Q126.62 0.85 124.18-1.49 121.74-3.83 121.74-7.5L121.74-7.5Q121.74-11.83 125.13-14.18 128.52-16.53 134.67-16.53L134.67-16.53 138.24-16.53 138.24-17.53Q138.24-19.6 136.9-20.6 135.56-21.6 132.99-21.6L132.99-21.6Q131.72-21.6 129.72-21.24 127.72-20.88 125.72-20.2L125.72-20.2 123.89-25.45Q126.47-26.43 129.25-26.93 132.04-27.43 134.24-27.43L134.24-27.43Q140.17-27.43 143-25.01 145.84-22.6 145.84-18.05L145.84-18.05ZM133.44-4.8L133.44-4.8Q134.72-4.8 136.12-5.56 137.52-6.33 138.24-7.73L138.24-7.73 138.24-12.03 136.29-12.03Q132.99-12.03 131.44-11.01 129.89-10 129.89-8.05L129.89-8.05Q129.89-6.53 130.83-5.66 131.77-4.8 133.44-4.8ZM164.14-4.8L164.14-4.8Q166.11-4.8 167.33-5.43 168.54-6.05 168.54-7.3L168.54-7.3Q168.54-8.15 168.06-8.72 167.59-9.3 166.24-9.83 164.89-10.35 162.24-11.08L162.24-11.08Q159.81-11.73 157.95-12.73 156.09-13.73 155.05-15.3 154.01-16.88 154.01-19.23L154.01-19.23Q154.01-21.6 155.34-23.45 156.66-25.3 159.24-26.36 161.81-27.43 165.54-27.43L165.54-27.43Q169.09-27.43 171.73-26.51 174.36-25.6 176.29-24.2L176.29-24.2 173.14-19.55Q171.49-20.58 169.59-21.19 167.69-21.8 165.76-21.8L165.76-21.8Q163.84-21.8 162.9-21.29 161.96-20.78 161.96-19.75L161.96-19.75Q161.96-19.07 162.45-18.59 162.94-18.1 164.29-17.59 165.64-17.07 168.24-16.32L168.24-16.32Q170.81-15.6 172.73-14.65 174.64-13.7 175.69-12.11 176.74-10.53 176.74-7.93L176.74-7.93Q176.74-5.03 175.01-3.06 173.29-1.1 170.44-0.13 167.59 0.85 164.19 0.85L164.19 0.85Q160.34 0.85 157.39-0.25 154.44-1.35 152.36-3.15L152.36-3.15 156.34-7.6Q157.89-6.4 159.85-5.6 161.81-4.8 164.14-4.8ZM183.49-37.1L191.39-37.88 191.39-23.93Q193.06-25.7 195.02-26.56 196.99-27.43 199.19-27.43L199.19-27.43Q202.74-27.43 204.61-25.35 206.49-23.28 206.49-19.5L206.49-19.5 206.49 0 198.59 0 198.59-17.3Q198.59-19.7 198.05-20.65 197.51-21.6 196.04-21.6L196.04-21.6Q195.21-21.6 194.42-21.21 193.64-20.83 192.89-20.1 192.14-19.38 191.39-18.38L191.39-18.38 191.39 0 183.49 0 183.49-37.1ZM224.98-27.43L224.98-27.43Q229.08-27.43 231.96-25.68 234.83-23.93 236.36-20.76 237.88-17.6 237.88-13.35L237.88-13.35Q237.88-8.93 236.35-5.74 234.81-2.55 231.93-0.85 229.06 0.85 224.98 0.85L224.98 0.85Q220.93 0.85 218.05-0.83 215.16-2.5 213.62-5.68 212.08-8.85 212.08-13.3L212.08-13.3Q212.08-17.53 213.62-20.7 215.16-23.88 218.05-25.65 220.93-27.43 224.98-27.43ZM224.98-21.6L224.98-21.6Q222.56-21.6 221.4-19.61 220.23-17.63 220.23-13.3L220.23-13.3Q220.23-8.9 221.4-6.93 222.56-4.95 224.98-4.95L224.98-4.95Q227.41-4.95 228.57-6.93 229.73-8.9 229.73-13.35L229.73-13.35Q229.73-17.65 228.57-19.63 227.41-21.6 224.98-21.6ZM258.18-27.43L258.18-27.43Q261.66-27.43 263.78-25.7 265.91-23.98 266.89-20.83 267.88-17.68 267.88-13.35L267.88-13.35Q267.88-9.25 266.68-6.04 265.48-2.83 263.21-0.99 260.93 0.85 257.68 0.85L257.68 0.85Q253.81 0.85 251.38-1.93L251.38-1.93 251.38 10.25 243.48 11.08 243.48-26.55 250.48-26.55 250.83-23.58Q252.46-25.65 254.38-26.54 256.31-27.43 258.18-27.43ZM255.73-21.6L255.73-21.6Q254.36-21.6 253.31-20.78 252.26-19.95 251.38-18.53L251.38-18.53 251.38-7.33Q252.21-6.1 253.12-5.53 254.03-4.95 255.28-4.95L255.28-4.95Q257.38-4.95 258.56-6.86 259.73-8.78 259.73-13.25L259.73-13.25Q259.73-16.55 259.25-18.36 258.78-20.18 257.88-20.89 256.98-21.6 255.73-21.6Z" opacity="1" transform="matrix(1,0,0,1,0,0)" fill="#fdda00" class="wordmark-text-0" data-fill-palette-color="primary" id="text-0"></path></svg></g></svg></g></svg></g></svg></g><g transform="matrix(1,0,0,1,254.66561467133576,0)"><svg viewBox="0 0 59.91180787452363 59.91180787452363" height="59.91180787452363" width="59.91180787452363"><g><svg xmlns="http://www.w3.org/2000/svg" xmlns:xlink="http://www.w3.org/1999/xlink" version="1.1" x="0" y="0" viewBox="5 5 90 90" enable-background="new 0 0 100 100" xml:space="preserve" height="59.91180787452363" width="59.91180787452363" class="icon-icon-0" data-fill-palette-color="accent" id="icon-0"><g fill="#fce44d" data-fill-palette-color="accent"><path d="M50 7c23.7 0 43 19.3 43 43S73.7 93 50 93 7 73.7 7 50 26.3 7 50 7M50 5C25.2 5 5 25.1 5 50c0 24.9 20.2 45 45 45s45-20.1 45-45C95 25.1 74.8 5 50 5L50 5z" fill="#fce44d" data-fill-palette-color="accent"></path></g><g fill="#fce44d" data-fill-palette-color="accent"><g fill="#fce44d" data-fill-palette-color="accent"><path d="M61.7 40.7L58 52.9l-0.3 1H37c-0.1 0-0.1 0-0.1 0 0 0 0 0 0 0 0 0-0.2-0.3-0.5-1.1l-3.7-12.1H61.7M64.3 38.7H30l4.5 14.7c0.5 1.6 1.1 2.5 2.5 2.5h22.1l0.7-2.5 3.7-12.2L64.3 38.7 64.3 38.7z" fill="#fce44d" data-fill-palette-color="accent"></path></g></g><circle cx="38.4" cy="66.7" r="1.9" fill="#fce44d" data-fill-palette-color="accent"></circle><circle cx="54.4" cy="66.7" r="1.9" fill="#fce44d" data-fill-palette-color="accent"></circle><g fill="#fce44d" data-fill-palette-color="accent"><path d="M53 62.9H35v-2.5h18c1.9 0 2.4-0.5 2.7-1.6l0.5-1.6c1.1-3.3 3.3-10.3 4.5-14.5 1.4-5.1 3.4-11.3 3.4-11.3l0.3-0.9H70V33h-3.9c-0.6 1.9-2 6.5-3.1 10.4-1.2 4.2-3.4 11.2-4.5 14.6l-0.5 1.6C57.3 61.8 55.7 62.9 53 62.9L53 62.9z" fill="#fce44d" data-fill-palette-color="accent"></path></g></svg></g></svg></g></svg></g></svg></g></svg></g><g><path d="M245.816 0c68.262 0 123.6 55.338 123.6 123.6 0 68.262-55.338 123.6-123.6 123.6-58.899 0-108.175-41.197-120.586-96.348h1.558c12.382 54.305 60.972 94.829 119.028 94.829 67.424 0 122.081-54.658 122.081-122.081 0-67.424-54.658-122.081-122.081-122.081-58.056 0-106.646 40.524-119.028 94.829l-1.558 0c12.411-55.151 61.687-96.348 120.586-96.348z" fill="#fce44d" stroke="transparent" data-fill-palette-color="tertiary"></path></g></svg></g><defs></defs></svg><rect width="395.52" height="247.2" fill="none" stroke="none" visibility="hidden"></rect></g></svg></g></svg>